<?xml version="1.0" encoding="utf-8" standalone="no"?>
<!DOCTYPE svg PUBLIC "-//W3C//DTD SVG 1.1//EN"
  "http://www.w3.org/Graphics/SVG/1.1/DTD/svg11.dtd">
<!-- Created with matplotlib (http://matplotlib.org/) -->
<svg height="432pt" version="1.1" viewBox="0 0 576 432" width="576pt" xmlns="http://www.w3.org/2000/svg" xmlns:xlink="http://www.w3.org/1999/xlink">
 <defs>
  <style type="text/css">
*{stroke-linecap:butt;stroke-linejoin:round;}
  </style>
 </defs>
 <g id="figure_1">
  <g id="patch_1">
   <path d="
M0 432
L576 432
L576 0
L0 0
z
" style="fill:#ffffff;"/>
  </g>
  <g id="axes_1">
   <g id="LineCollection_1">
    <defs>
     <path d="
M356.149 -61.7143
L475.907 -149.624" id="C0_0_9245939822"/>
     <path d="
M356.149 -61.7143
L203.085 -82.7562" id="C0_1_01583fb670"/>
     <path d="
M475.907 -149.624
L493.714 -274.331" id="C0_2_98d3f679ce"/>
     <path d="
M475.907 -149.624
L307.664 -206.398" id="C0_3_704a41f8bb"/>
     <path d="
M493.714 -274.331
L366.569 -345.614" id="C0_4_0fb4b91b43"/>
     <path d="
M82.2857 -165.727
L146.922 -257.629" id="C0_5_47ac3da758"/>
     <path d="
M82.2857 -165.727
L203.085 -82.7562" id="C0_6_1038d11193"/>
     <path d="
M307.664 -206.398
L146.922 -257.629" id="C0_7_20115c0b74"/>
     <path d="
M307.664 -206.398
L203.085 -82.7562" id="C0_8_c402a20b91"/>
     <path d="
M307.664 -206.398
L366.569 -345.614" id="C0_9_2a2fb2314b"/>
     <path d="
M200.419 -352.165
L146.922 -257.629" id="C0_a_a220519ead"/>
     <path d="
M200.419 -352.165
L366.569 -345.614" id="C0_b_fe8358749a"/>
    </defs>
    <g clip-path="url(#p5a67343740)">
     <use style="fill:none;stroke:#000000;" x="0.0" xlink:href="#C0_0_9245939822" y="432.0"/>
    </g>
    <g clip-path="url(#p5a67343740)">
     <use style="fill:none;stroke:#000000;" x="0.0" xlink:href="#C0_1_01583fb670" y="432.0"/>
    </g>
    <g clip-path="url(#p5a67343740)">
     <use style="fill:none;stroke:#000000;" x="0.0" xlink:href="#C0_2_98d3f679ce" y="432.0"/>
    </g>
    <g clip-path="url(#p5a67343740)">
     <use style="fill:none;stroke:#000000;" x="0.0" xlink:href="#C0_3_704a41f8bb" y="432.0"/>
    </g>
    <g clip-path="url(#p5a67343740)">
     <use style="fill:none;stroke:#000000;" x="0.0" xlink:href="#C0_4_0fb4b91b43" y="432.0"/>
    </g>
    <g clip-path="url(#p5a67343740)">
     <use style="fill:none;stroke:#000000;" x="0.0" xlink:href="#C0_5_47ac3da758" y="432.0"/>
    </g>
    <g clip-path="url(#p5a67343740)">
     <use style="fill:none;stroke:#000000;" x="0.0" xlink:href="#C0_6_1038d11193" y="432.0"/>
    </g>
    <g clip-path="url(#p5a67343740)">
     <use style="fill:none;stroke:#000000;" x="0.0" xlink:href="#C0_7_20115c0b74" y="432.0"/>
    </g>
    <g clip-path="url(#p5a67343740)">
     <use style="fill:none;stroke:#000000;" x="0.0" xlink:href="#C0_8_c402a20b91" y="432.0"/>
    </g>
    <g clip-path="url(#p5a67343740)">
     <use style="fill:none;stroke:#000000;" x="0.0" xlink:href="#C0_9_2a2fb2314b" y="432.0"/>
    </g>
    <g clip-path="url(#p5a67343740)">
     <use style="fill:none;stroke:#000000;" x="0.0" xlink:href="#C0_a_a220519ead" y="432.0"/>
    </g>
    <g clip-path="url(#p5a67343740)">
     <use style="fill:none;stroke:#000000;" x="0.0" xlink:href="#C0_b_fe8358749a" y="432.0"/>
    </g>
   </g>
   <g id="PathCollection_1">
    <defs>
     <path d="
M0 8.66025
C2.29673 8.66025 4.49969 7.74776 6.12372 6.12372
C7.74776 4.49969 8.66025 2.29673 8.66025 0
C8.66025 -2.29673 7.74776 -4.49969 6.12372 -6.12372
C4.49969 -7.74776 2.29673 -8.66025 0 -8.66025
C-2.29673 -8.66025 -4.49969 -7.74776 -6.12372 -6.12372
C-7.74776 -4.49969 -8.66025 -2.29673 -8.66025 0
C-8.66025 2.29673 -7.74776 4.49969 -6.12372 6.12372
C-4.49969 7.74776 -2.29673 8.66025 0 8.66025
z
" id="mf9612d42da" style="stroke:#000000;"/>
    </defs>
    <g clip-path="url(#p5a67343740)">
     <use style="fill:#ff0000;stroke:#000000;" x="356.14903767" xlink:href="#mf9612d42da" y="370.285714286"/>
     <use style="fill:#ff0000;stroke:#000000;" x="475.906643266" xlink:href="#mf9612d42da" y="282.37576406"/>
     <use style="fill:#ff0000;stroke:#000000;" x="493.714285714" xlink:href="#mf9612d42da" y="157.668920508"/>
     <use style="fill:#ff0000;stroke:#000000;" x="82.2857142857" xlink:href="#mf9612d42da" y="266.272994996"/>
     <use style="fill:#ff0000;stroke:#000000;" x="307.664101723" xlink:href="#mf9612d42da" y="225.601845777"/>
     <use style="fill:#ff0000;stroke:#000000;" x="200.418645928" xlink:href="#mf9612d42da" y="79.8352150355"/>
     <use style="fill:#ff0000;stroke:#000000;" x="146.921851921" xlink:href="#mf9612d42da" y="174.371320068"/>
     <use style="fill:#ff0000;stroke:#000000;" x="366.568946477" xlink:href="#mf9612d42da" y="86.3860935963"/>
     <use style="fill:#ff0000;stroke:#000000;" x="203.084672948" xlink:href="#mf9612d42da" y="349.243828344"/>
    </g>
   </g>
   <g id="text_1">
    <g clip-path="url(#p5a67343740)">
     <!-- F -->
     <defs>
      <path d="
M9.8125 72.9062
L51.7031 72.9062
L51.7031 64.5938
L19.6719 64.5938
L19.6719 43.1094
L48.5781 43.1094
L48.5781 34.8125
L19.6719 34.8125
L19.6719 0
L9.8125 0
z
" id="DejaVuSans-46"/>
     </defs>
     <g transform="translate(473.393205766 285.68701406)scale(0.12 -0.12)">
      <use xlink:href="#DejaVuSans-46"/>
     </g>
    </g>
   </g>
   <g id="text_2">
    <g clip-path="url(#p5a67343740)">
     <!-- C -->
     <defs>
      <path d="
M64.4062 67.2812
L64.4062 56.8906
Q59.4219 61.5312 53.7812 63.8125
Q48.1406 66.1094 41.7969 66.1094
Q29.2969 66.1094 22.6562 58.4688
Q16.0156 50.8281 16.0156 36.375
Q16.0156 21.9688 22.6562 14.3281
Q29.2969 6.6875 41.7969 6.6875
Q48.1406 6.6875 53.7812 8.98438
Q59.4219 11.2812 64.4062 15.9219
L64.4062 5.60938
Q59.2344 2.09375 53.4375 0.328125
Q47.6562 -1.42188 41.2188 -1.42188
Q24.6562 -1.42188 15.125 8.70312
Q5.60938 18.8438 5.60938 36.375
Q5.60938 53.9531 15.125 64.0781
Q24.6562 74.2188 41.2188 74.2188
Q47.75 74.2188 53.5312 72.4844
Q59.3281 70.75 64.4062 67.2812" id="DejaVuSans-43"/>
     </defs>
     <g transform="translate(490.186473214 160.980170508)scale(0.12 -0.12)">
      <use xlink:href="#DejaVuSans-43"/>
     </g>
    </g>
   </g>
   <g id="text_3">
    <g clip-path="url(#p5a67343740)">
     <!-- I -->
     <defs>
      <path d="
M9.8125 72.9062
L19.6719 72.9062
L19.6719 0
L9.8125 0
z
" id="DejaVuSans-49"/>
     </defs>
     <g transform="translate(355.55747517 373.596964286)scale(0.12 -0.12)">
      <use xlink:href="#DejaVuSans-49"/>
     </g>
    </g>
   </g>
   <g id="text_4">
    <g clip-path="url(#p5a67343740)">
     <!-- E -->
     <defs>
      <path d="
M9.8125 72.9062
L55.9062 72.9062
L55.9062 64.5938
L19.6719 64.5938
L19.6719 43.0156
L54.3906 43.0156
L54.3906 34.7188
L19.6719 34.7188
L19.6719 8.29688
L56.7812 8.29688
L56.7812 0
L9.8125 0
z
" id="DejaVuSans-45"/>
     </defs>
     <g transform="translate(304.845976723 228.913095777)scale(0.12 -0.12)">
      <use xlink:href="#DejaVuSans-45"/>
     </g>
    </g>
   </g>
   <g id="text_5">
    <g clip-path="url(#p5a67343740)">
     <!-- A -->
     <defs>
      <path d="
M34.1875 63.1875
L20.7969 26.9062
L47.6094 26.9062
z

M28.6094 72.9062
L39.7969 72.9062
L67.5781 0
L57.3281 0
L50.6875 18.7031
L17.8281 18.7031
L11.1875 0
L0.78125 0
z
" id="DejaVuSans-41"/>
     </defs>
     <g transform="translate(196.410833428 83.1464650355)scale(0.12 -0.12)">
      <use xlink:href="#DejaVuSans-41"/>
     </g>
    </g>
   </g>
   <g id="text_6">
    <g clip-path="url(#p5a67343740)">
     <!-- D -->
     <defs>
      <path d="
M19.6719 64.7969
L19.6719 8.10938
L31.5938 8.10938
Q46.6875 8.10938 53.6875 14.9375
Q60.6875 21.7812 60.6875 36.5312
Q60.6875 51.1719 53.6875 57.9844
Q46.6875 64.7969 31.5938 64.7969
z

M9.8125 72.9062
L30.0781 72.9062
Q51.2656 72.9062 61.1719 64.0938
Q71.0938 55.2812 71.0938 36.5312
Q71.0938 17.6719 61.125 8.82812
Q51.1719 0 30.0781 0
L9.8125 0
z
" id="DejaVuSans-44"/>
     </defs>
     <g transform="translate(143.244976921 177.682570068)scale(0.12 -0.12)">
      <use xlink:href="#DejaVuSans-44"/>
     </g>
    </g>
   </g>
   <g id="text_7">
    <g clip-path="url(#p5a67343740)">
     <!-- B -->
     <defs>
      <path d="
M19.6719 34.8125
L19.6719 8.10938
L35.5 8.10938
Q43.4531 8.10938 47.2812 11.4062
Q51.125 14.7031 51.125 21.4844
Q51.125 28.3281 47.2812 31.5625
Q43.4531 34.8125 35.5 34.8125
z

M19.6719 64.7969
L19.6719 42.8281
L34.2812 42.8281
Q41.5 42.8281 45.0312 45.5312
Q48.5781 48.25 48.5781 53.8125
Q48.5781 59.3281 45.0312 62.0625
Q41.5 64.7969 34.2812 64.7969
z

M9.8125 72.9062
L35.0156 72.9062
Q46.2969 72.9062 52.3906 68.2188
Q58.5 63.5312 58.5 54.8906
Q58.5 48.1875 55.375 44.2344
Q52.25 40.2812 46.1875 39.3125
Q53.4688 37.75 57.5 32.7812
Q61.5312 27.8281 61.5312 20.4062
Q61.5312 10.6406 54.8906 5.3125
Q48.25 0 35.9844 0
L9.8125 0
z
" id="DejaVuSans-42"/>
     </defs>
     <g transform="translate(363.465821477 89.6973435963)scale(0.12 -0.12)">
      <use xlink:href="#DejaVuSans-42"/>
     </g>
    </g>
   </g>
   <g id="text_8">
    <g clip-path="url(#p5a67343740)">
     <!-- G -->
     <defs>
      <path d="
M59.5156 10.4062
L59.5156 29.9844
L43.4062 29.9844
L43.4062 38.0938
L69.2812 38.0938
L69.2812 6.78125
Q63.5781 2.73438 56.6875 0.65625
Q49.8125 -1.42188 42 -1.42188
Q24.9062 -1.42188 15.25 8.5625
Q5.60938 18.5625 5.60938 36.375
Q5.60938 54.25 15.25 64.2344
Q24.9062 74.2188 42 74.2188
Q49.125 74.2188 55.5469 72.4531
Q61.9688 70.7031 67.3906 67.2812
L67.3906 56.7812
Q61.9219 61.4219 55.7656 63.7656
Q49.6094 66.1094 42.8281 66.1094
Q29.4375 66.1094 22.7188 58.6406
Q16.0156 51.1719 16.0156 36.375
Q16.0156 21.625 22.7188 14.1562
Q29.4375 6.6875 42.8281 6.6875
Q48.0469 6.6875 52.1406 7.59375
Q56.25 8.5 59.5156 10.4062" id="DejaVuSans-47"/>
     </defs>
     <g transform="translate(78.4654017857 269.584244996)scale(0.12 -0.12)">
      <use xlink:href="#DejaVuSans-47"/>
     </g>
    </g>
   </g>
   <g id="text_9">
    <g clip-path="url(#p5a67343740)">
     <!-- H -->
     <defs>
      <path d="
M9.8125 72.9062
L19.6719 72.9062
L19.6719 43.0156
L55.5156 43.0156
L55.5156 72.9062
L65.375 72.9062
L65.375 0
L55.5156 0
L55.5156 34.7188
L19.6719 34.7188
L19.6719 0
L9.8125 0
z
" id="DejaVuSans-48"/>
     </defs>
     <g transform="translate(199.750922948 352.555078344)scale(0.12 -0.12)">
      <use xlink:href="#DejaVuSans-48"/>
     </g>
    </g>
   </g>
  </g>
 </g>
 <defs>
  <clipPath id="p5a67343740">
   <rect height="432.0" width="576.0" x="0.0" y="0.0"/>
  </clipPath>
 </defs>
</svg>
